<?xml version="1.0" encoding="utf-8"?>
<!-- Generator: Adobe Illustrator 12.0.1, SVG Export Plug-In . SVG Version: 6.00 Build 51448)  -->
<!DOCTYPE svg PUBLIC "-//W3C//DTD SVG 1.1//EN" "http://www.w3.org/Graphics/SVG/1.1/DTD/svg11.dtd" [
	<!ENTITY ns_svg "http://www.w3.org/2000/svg">
	<!ENTITY ns_xlink "http://www.w3.org/1999/xlink">
]>
<svg  version="1.1" id="Layer_1" xmlns="&ns_svg;" xmlns:xlink="&ns_xlink;" width="239.538" height="483.664"
	 viewBox="0 0 239.538 483.664" overflow="visible" enable-background="new 0 0 239.538 483.664" xml:space="preserve">
<path fill="#2E3192" d="M0,196.313c0,0,19.972-49.634,22.008-54.158c2.032-4.524,7.886-1.199,7.886-1.199l48.464,21.558l2.799-0.799
	c0,0,0.254-6.919,1.527-7.186c1.271-0.266,1.526-3.063,1.017-5.455c-0.511-2.396,1.02-9.315,1.78-9.45
	c0.763-0.133-0.125-3.858-0.634-6.255c-0.51-2.395,2.924-34.597,2.924-34.597c2.672-11.977,26.206-13.042,25.825-13.307
	c-0.384-0.267-8.396-27.281-9.668-28.078c-1.274-0.8-4.198-19.429-4.198-19.429c-2.674-4.525-1.144-16.102-1.144-16.102
	C113.85-4.892,135.223,0.432,135.223,0.432s3.181,2.528,3.943,2.661c0.765,0.133,6.487,1.596,8.143,1.596
	c1.652,0,12.593,16.369,12.466,20.893c-0.128,4.524,0.635,23.554,0.635,23.554h1.655c3.053,3.99-4.327,19.296-4.327,19.296
	l0.766,5.722c0,0-0.13,9.315,10.939,15.969c11.066,6.652,51.138,46.042,51.138,46.042l-0.765,30.739c0,0-2.545,26.882-0.89,32.736
	c1.654,5.857-10.688,43.383-10.688,44.047c0,0.668,2.29,7.985,1.909,9.45c-0.379,1.464-6.486,24.22-6.486,24.619
	c0,0.398-7.251,40.452-7.251,40.452l-3.435,4.525c0,0-0.511,9.45,0.128,8.783c0.636-0.665,9.923,7.317,9.923,7.317l33.072,1.064
	c6.615,4.926,1.653,67.202,1.653,68.4s-9.669,9.315-12.084,10.647c-2.418,1.331-11.066,1.463-11.702,0.927
	c-0.639-0.53-2.802,3.861-2.802,3.861h-6.104l-0.127-1.73l-26.333,3.996c-10.686,23.553-9.668,30.738-15.899,41.516
	c-6.234,10.781-18.193,13.575-22.643,15.706c-4.454,2.127-10.179-4.129-10.179-4.129l-0.509-6.119
	c-1.782-4.523,15.773-34.204,15.773-34.204l-0.125-12.902c0,0-10.307,0.263-12.722,0.395c-2.417,0.136-11.702-1.729-11.702-2.259
	c0-0.531-20.99,10.645-20.99,10.645c-0.892,1.993-16.156,1.331-16.156,1.331c-7.886,1.466-9.033-7.984-9.033-7.984
	c-1.017-7.717,29.386-20.229,29.386-20.229l4.325-7.981l-0.125-3.063c-7.38,0.268-17.557-102.064-17.557-102.064
	s-4.327-12.909-6.233-14.771c-1.907-1.864,6.615-42.451,6.615-42.451l-2.164-0.401l-21.879-9.979c0,0,2.291,1.863-7.505,1.729
	c-9.795-0.134-22.39-7.985-22.39-7.985l-1.145-7.585l-4.068-1.197c-9.162,1.066-7.382-3.858-7.382-3.858L0,196.313z M199.207,341.23
	l0.085-0.264c0-0.625-6.188-5.858-6.442-4.969c-0.257,0.886-4.752,1.772-4.752,1.772l-3.646,4.258L199.207,341.23z"/>
<path fill="#FFFFFF" d="M159.265,76.948c0,0-4.707,29.01-33.072,29.674c0,0-10.375-11.919-7.635-15.036
	c1.403-1.597-2.921-1.198-2.921-1.198l1.14,11.976l-5.978,16.901c0,0-7.632,33.535-7.632,36.062c0,2.529-3.563,45.647-2.672,46.977
	c0.892,1.329,21.625-42.85,22.006-46.178c0.381-3.325,26.842-52.695,26.842-52.695s10.432-16.635,10.432-17.568
	C159.774,84.932,159.265,76.948,159.265,76.948z"/>
<path fill="#2E3192" d="M128.378,104.796l-2.774-2.121l-4.817,5.091c0,0-1.167,12.726-1.461,14.284
	c-0.29,1.555-19.268,66.321-15.327,76.926l25.838-51.899l-2.188-26.727c0,0,2.188-9.615,1.019-10.18
	c-1.167-0.565,0.147-5.515,0.147-5.515"/>
</svg>
